<svg width="800" height="600" xmlns="http://www.w3.org/2000/svg">
 <defs>
  <linearGradient gradientUnits="userSpaceOnUse" gradientTransform="matrix(20.984960556030273,0,0,20.984960556030273,-41.23505401611328,-44.38606262207031)" y2="1.982" y1="22.67" x2="22.185" x1="1.725" id="svg_2">
   <stop stop-color="#7C4DFF" offset="0"/>
   <stop stop-color="#D500F9" offset="0.5"/>
   <stop stop-color="#EF5350" offset="1"/>
  </linearGradient>
 </defs>
 <g>
  <title>Layer 1</title>
  <g stroke="null">
   <path stroke="null" d="m417.11485,150.78572l0,49.78571l149.35713,0c-49.78571,0 -74.67857,-49.78571 -149.35713,-49.78571" fill="#0097a7"/>
   <path stroke="null" d="m666.04341,1.42859l-49.78571,0a99.57142,99.57142 0 0 0 -99.57142,99.57142l99.57142,0a24.89286,24.89286 0 0 1 49.78571,0l0,99.57142l-248.92856,0l0,-49.78571l-132.35531,0a66.78753,66.78753 0 0 0 -66.78753,66.78753l0,65.56778a66.78753,66.78753 0 0 0 66.78753,66.78753l132.35531,0l0,49.78571l-148.85928,0a100.06928,100.06928 0 0 1 -100.06928,-99.57142l0,-49.78571c-49.78571,0 -99.57142,99.57142 -99.57142,199.14284c0,124.46428 24.89286,149.35713 49.78571,149.35713l99.57142,0l0,-99.57142l99.57142,0l0,99.57142l99.57142,0l0,-99.57142l99.57142,0l0,99.57142l99.57142,0l0,-149.35713a49.78571,49.78571 0 0 0 49.78571,-49.78571l0,-49.78571a99.57142,99.57142 0 0 0 99.57142,-99.57142l0,-149.35713a99.57142,99.57142 0 0 0 -99.57142,-99.57142m-99.57142,298.71427l-49.78571,0a49.78571,49.78571 0 0 1 -49.78571,-49.78571l149.35713,0a49.78571,49.78571 0 0 1 -49.78571,49.78571" fill="#0097a7"/>
  </g>
  <g stroke="null">

   <path stroke="null" d="m-2.02509,-0.99429l0,424.00318l424.05017,0l0,-0.70479l-105.20203,-105.9773l-105.24902,-106.07128l105.24902,-106.07128l104.37977,-105.17854l-423.22791,0z" fill="url(#svg_2)"/>
  </g>
 </g>
</svg>